<?xml version="1.0" encoding="UTF-8" standalone="no" ?>
<!DOCTYPE svg PUBLIC "-//W3C//DTD SVG 1.1//EN" "http://www.w3.org/Graphics/SVG/1.1/DTD/svg11.dtd">
<svg xmlns="http://www.w3.org/2000/svg" xmlns:xlink="http://www.w3.org/1999/xlink" version="1.1" width="1080" height="1080" viewBox="0 0 1080 1080" xml:space="preserve">
<desc>Created with Fabric.js 5.2.4</desc>
<defs>
</defs>
<g transform="matrix(1 0 0 1 540 540)" id="8a88db37-bb98-404f-8af0-40071088a2dc"  >
<rect style="stroke: none; stroke-width: 1; stroke-dasharray: none; stroke-linecap: butt; stroke-dashoffset: 0; stroke-linejoin: miter; stroke-miterlimit: 4; fill: rgb(255,255,255); fill-rule: nonzero; opacity: 1; visibility: hidden;" vector-effect="non-scaling-stroke"  x="-540" y="-540" rx="0" ry="0" width="1080" height="1080" />
</g>
<g transform="matrix(1 0 0 1 540 540)" id="2c79b6a6-56ec-4ea2-8b23-bf42d8a2f0ce"  >
</g>
<g transform="matrix(14.16 0 0 14.16 540 430.41)" id="38eece69-8979-4eec-8bf3-b631d18509d2"  >
<path style="stroke: rgb(0,0,0); stroke-width: 0; stroke-dasharray: none; stroke-linecap: butt; stroke-dashoffset: 0; stroke-linejoin: miter; stroke-miterlimit: 4; fill: rgb(37,211,102); fill-rule: nonzero; opacity: 1;" vector-effect="non-scaling-stroke"  transform=" translate(-50, -50)" d="M 50 20.881 C 29.442 20.881 12.743000000000002 32.034 12.743000000000002 45.772999999999996 C 12.743000000000002 59.513 29.442000000000004 69.976 50 70.612 C 54.387 74.36399999999999 53.804 77.27 67.754 79.11999999999999 C 64.531 76.689 60.409000000000006 74.68199999999999 61.098000000000006 69.76599999999999 C 76.212 66.80799999999999 87.256 57.03099999999999 87.256 45.77399999999999 C 87.257 31.874 70.559 20.881 50 20.881 z" stroke-linecap="round" />
</g>
<g transform="matrix(NaN NaN NaN NaN 0 0)"  >
<g style=""   >
</g>
</g>
<g transform="matrix(NaN NaN NaN NaN 0 0)"  >
<g style=""   >
</g>
</g>
<g transform="matrix(1 0 0 1 540 367.72)" style="" id="89f163ae-c8db-4922-b0e6-e1dcbc3db0b8"  >
		<text xml:space="preserve" font-family="Lato" font-size="57" font-style="normal" font-weight="400" style="stroke: none; stroke-width: 1; stroke-dasharray: none; stroke-linecap: butt; stroke-dashoffset: 0; stroke-linejoin: miter; stroke-miterlimit: 4; fill: rgb(255,255,255); fill-rule: nonzero; opacity: 1; white-space: pre;" ><tspan x="-450.39" y="17.91" >h</tspan><tspan x="-421.26" y="17.91" >t</tspan><tspan x="-402.56" y="17.91" >t</tspan><tspan x="-383.87" y="17.91" >p</tspan><tspan x="-354.97" y="17.91" >s</tspan><tspan x="-332.79" y="17.91" >:</tspan><tspan x="-321" y="17.91" >/</tspan><tspan x="-306.18" y="17.91" >/</tspan><tspan x="-290.79" y="17.91" >a</tspan><tspan x="-264.45" y="17.91" >s</tspan><tspan x="-242.28" y="17.91" >k</tspan><tspan x="-214.98" y="17.91" >-</tspan><tspan x="-197.76" y="17.91" >t</tspan><tspan x="-179.07" y="17.91" >h</tspan><tspan x="-149.94" y="17.91" >e</tspan><tspan x="-122.64" y="17.91" >m</tspan><tspan x="-78.4" y="17.91" >-</tspan><tspan x="-61.19" y="17.91" >o</tspan><tspan x="-32.06" y="17.91" >u</tspan><tspan x="-2.94" y="17.91" >t</tspan><tspan x="15.76" y="17.91" >.</tspan><tspan x="25.28" y="17.91" >c</tspan><tspan x="49.33" y="17.91" >o</tspan><tspan x="78.46" y="17.91" >m</tspan><tspan x="122.69" y="17.91" >/</tspan><tspan x="138.08" y="17.91" >a</tspan><tspan x="164.42" y="17.91" >s</tspan><tspan x="186.59" y="17.91" >k</tspan><tspan x="213.89" y="17.91" >/</tspan><tspan x="232.59" y="17.91" >L</tspan><tspan x="259.32" y="17.91" >u</tspan><tspan x="288.45" y="17.91" >c</tspan><tspan x="312.5" y="17.91" >y</tspan><tspan x="339.12" y="17.91" >-</tspan><tspan x="356.34" y="17.91" >1</tspan><tspan x="386.83" y="17.91" >2</tspan><tspan x="417.33" y="17.91" >3</tspan></text>
</g>
</svg>