<svg width="1080" height="1080" xmlns="http://www.w3.org/2000/svg" clip-rule="evenodd" version="1.1">

 <g>
  <title>Layer 1</title>
  <g id="svg_1">
   <path id="svg_2" opacity="0.152" d="m413.5,243.5c-22.825,-0.918 -45.492,0.416 -68,4c1.889,-0.822 3.889,-1.655 6,-2.5c6.81,-0.122 13.477,-1.122 20,-3c12.667,-0.667 25.333,-0.667 38,0c1.558,0.21 2.891,0.71 4,1.5z" fill="#fcfcfc"/>
  </g>
  <g id="svg_3">
   <path id="svg_4" opacity="0.087" d="m726.5,247.5c-18.564,-2.597 -37.23,-3.597 -56,-3c6.287,-1.518 12.787,-2.518 19.5,-3c10.181,1.088 20.348,2.254 30.5,3.5c2.474,0.037 4.474,0.87 6,2.5z" fill="#f9f8f8"/>
  </g>
  <g id="svg_7">
   <path id="svg_8" opacity="0.255" d="m573.5,284.5c-10.634,9.801 -20.801,20.134 -30.5,31c-1.919,-3.754 -4.419,-7.088 -7.5,-10c1.755,0.572 3.422,1.406 5,2.5c1.333,0.667 2.667,0.667 4,0c9.85,-7.691 19.516,-15.524 29,-23.5z" fill="#fbfbfb"/>
  </g>
  <g id="svg_13">
   <path id="svg_14" opacity="0.108" d="m503.5,798.5c12.578,9.908 24.245,20.908 35,33c-12.578,-9.908 -24.245,-20.908 -35,-33z" fill="#f9f8f8"/>
  </g>
  <g stroke="null" id="svg_16">
   <g stroke="null" id="svg_5">
    <path stroke="null" id="svg_6" opacity="0.99" d="m339.78452,3.67243c56.1772,7.20593 106.86577,28.19566 152.06572,62.96917c14.37338,11.63154 28.10206,24.01063 41.18447,37.13567c4.88036,4.7017 8.8404,10.08476 11.88013,16.14594c15.36339,-17.54418 31.4681,-34.22778 48.31255,-50.05242c7.15659,-7.55469 15.07668,-14.2827 23.76027,-20.18243c34.03579,-20.28899 70.46821,-34.82034 109.29724,-43.59404c6.84454,-0.80568 13.70809,-1.07532 20.59223,-0.8073c29.73202,-0.96391 59.2993,0.65068 88.705,4.84378c6.96493,-0.12109 13.82848,0.6862 20.59223,2.42189c76.95001,24.65485 137.40722,71.20845 181.37005,139.6624c9.7924,19.97092 18.76744,40.42298 26.9283,61.35458c24.41922,86.62621 14.91511,168.97051 -28.51232,247.03291c-15.17964,23.5311 -32.07478,45.59775 -50.68857,66.19836c-137.92044,136.80134 -275.99295,274.84914 -414.22069,414.14341c-6.4121,5.99983 -13.27724,11.38289 -20.59223,16.14594c-5.25419,1.57746 -9.47876,0.2325 -12.67214,-4.03649c-17.03611,-19.52367 -35.51685,-37.28421 -55.44063,-53.28161c-134.02693,-132.57271 -268.9314,-264.43178 -404.71658,-395.57557c-71.07488,-83.87009 -92.1946,-179.67043 -63.36072,-287.39776c36.81099,-101.24959 105.18671,-169.33218 205.13032,-204.24616c4.14537,-1.3272 8.36995,-2.13449 12.67214,-2.42189c35.65308,-5.78671 71.55801,-7.94057 107.71322,-6.45838z" fill="#d4d1d1"/>
   </g>
   <g stroke="null" id="svg_9">
    <path stroke="null" id="svg_10" d="m512.97048,199.57652c48.46461,-2.88528 92.81712,9.22418 133.05751,36.32837c59.7048,53.94844 81.08905,120.95409 64.15273,201.01697c-17.32124,55.33214 -52.96164,92.73745 -106.92121,112.2143c-13.5085,4.51925 -27.23719,8.01646 -41.18447,10.49486c5.17657,26.05955 -1.68698,47.85657 -20.59223,65.39106c-26.78733,14.86557 -50.81213,11.36836 -72.07282,-10.49486c-5.60426,-8.85605 -8.77229,-18.54361 -9.50411,-29.0627c-1.05654,-25.83351 -1.05654,-51.66701 0,-77.50052c3.01597,-20.82181 13.84115,-35.62279 32.47237,-44.40134c23.45455,-3.05804 46.15987,-8.97714 68.11277,-17.76054c39.13316,-17.08241 55.23629,-46.9524 48.31255,-89.60998c-10.36265,-24.58543 -28.57885,-39.92407 -54.64862,-46.01593c-32.70522,-9.63428 -60.42553,-1.82934 -83.16094,23.41162c-2.51225,3.50367 -4.62533,7.27213 -6.33607,11.30216c-2.83064,11.92216 -5.99868,23.7636 -9.50411,35.52107c-13.27882,23.04187 -33.07905,32.46142 -59.40067,28.2554c-29.84131,-12.64066 -42.25051,-35.51461 -37.22442,-68.62025c7.58586,-46.47448 30.55412,-82.80285 68.90478,-108.98511c26.21233,-17.4134 54.72465,-27.90826 85.53697,-31.48459z" fill="#f30476"/>
   </g>
   <g stroke="null" id="svg_11">
    <path stroke="null" id="svg_12" d="m503.46637,667.80884c27.97376,-0.67167 47.2465,12.24508 57.81665,38.75026c4.68869,28.92223 -5.60742,50.17997 -30.88835,63.77647c-42.29961,9.38564 -66.05988,-7.83563 -71.28081,-51.66701c4.06617,-26.96211 18.84981,-43.91535 44.3525,-50.85972z" fill="#f30977"/>
   </g>
  </g>
 </g>
</svg>